<?xml version="1.0" standalone="no"?><!DOCTYPE svg PUBLIC "-//W3C//DTD SVG 1.1//EN" "http://www.w3.org/Graphics/SVG/1.1/DTD/svg11.dtd"><svg t="1590566663042" class="icon" viewBox="0 0 1024 1024" version="1.1" xmlns="http://www.w3.org/2000/svg" p-id="2083" xmlns:xlink="http://www.w3.org/1999/xlink" width="512" height="512"><defs><style type="text/css"></style></defs><path d="M951.6882641 581.37648354V229.14216446a47.77066503 47.77066503 0 0 0-47.77066389-47.77066501H54.74943689a47.77066503 47.77066503 0 0 0-47.77066502 47.77066501v571.66222683A46.18491606 46.18491606 0 0 0 53.16368791 846.98930851h632.71353346a189.29869226 189.29869226 0 1 0 265.81104273-265.61282497zM46.62247658 229.14216446a8.12695916 8.12695916 0 0 1 8.12696031-8.12696031h849.16816332a8.12695916 8.12695916 0 0 1 8.12695918 8.12696031v80.67493952H46.62247658zM53.16368791 807.34560263a6.54121134 6.54121134 0 0 1-6.54121133-6.54121134V349.46080869h865.42208281v207.93123403a186.32541437 186.32541437 0 0 0-77.10700605-16.65035614 189.29869226 189.29869226 0 0 0-173.04477277 266.60391607z m781.77386543 72.74619925A149.85320529 149.85320529 0 1 1 984.79075863 730.04037769a150.05142421 150.05142421 0 0 1-149.85320529 150.05142419z" fill="#000000" p-id="2084"></path><path d="M906.49444028 710.21852591h-51.73503516v-51.53681742a19.82185294 19.82185294 0 0 0-39.64370471 0V710.21852591h-51.73503517a19.82185294 19.82185294 0 0 0 0 39.64370471h51.73503517v51.73503516a19.82185294 19.82185294 0 1 0 39.64370471 0V749.86223062h51.73503516a19.82185294 19.82185294 0 0 0 0-39.64370471zM440.68090608 501.29619962h97.72173231a19.82185294 19.82185294 0 0 0 0-39.64370471h-97.72173231a19.82185294 19.82185294 0 0 0 0 39.64370471zM573.28909965 692.18063969H173.4823333a19.82185294 19.82185294 0 0 0 0 39.64370472h399.80676635a19.82185294 19.82185294 0 1 0 0-39.64370472zM440.68090608 602.58586656h61.05130548a19.82185294 19.82185294 0 1 0 0-39.64370588h-61.05130548a19.82185294 19.82185294 0 0 0 0 39.64370588z" fill="#000000" p-id="2085"></path><path d="M274.3755624 265.41615463m-23.19156749 2e-8a23.19156748 23.19156748 0 1 0 46.38313498 0 23.19156748 23.19156748 0 1 0-46.38313498 0Z" fill="#000000" p-id="2086"></path><path d="M106.88090871 242.22458716a23.19156748 23.19156748 0 1 0 22.99334859 23.19156749 23.19156748 23.19156748 0 0 0-22.99334859-23.19156749z" fill="#000000" p-id="2087"></path><path d="M190.52912611 265.41615463m-23.1915675 2e-8a23.19156748 23.19156748 0 1 0 46.38313498 0 23.19156748 23.19156748 0 1 0-46.38313498 0Z" fill="#000000" p-id="2088"></path><path d="M180.02354464 497.72826617a19.82185294 19.82185294 0 0 0 19.82185294-19.82185295V472.35629529h34.88646008v121.70617428h-19.82185292a19.82185294 19.82185294 0 1 0 0 39.6437047h79.2874106a19.82185294 19.82185294 0 0 0 0-39.6437047h-19.82185294V472.35629529h35.08467901v6.54121133a19.82185294 19.82185294 0 0 0 39.64370588 0V452.53444235a19.82185294 19.82185294 0 0 0-19.82185294-19.82185294H180.02354464a19.82185294 19.82185294 0 0 0-19.82185294 19.82185294v26.36306427a19.82185294 19.82185294 0 0 0 19.82185294 18.83075955z" fill="#000000" p-id="2089"></path></svg>