<svg t="1603724781492" class="icon" viewBox="0 0 1024 1024" version="1.1" xmlns="http://www.w3.org/2000/svg" p-id="2656" width="13" height="13"><path d="M966.283012 57.28336A194.600516 194.600516 0 0 0 828.144425 0.000203c-49.932663 0-100.118792 19.009897-138.138586 57.283157l-667.12066 667.12066-22.811877 276.784103c-1.013861 12.166334 8.61782 22.304946 20.530689 22.304946h1.774257l276.784104-22.811876 667.12066-667.12066c76.293054-76.293054 76.293054-199.984119 0-276.277173zM271.534635 941.116848l-205.813821 16.72871L82.702989 751.778272l547.231575-547.231575 189.085111 189.085111-547.48504 547.48504zM922.686981 289.964502l-60.071275 60.071275-189.085111-189.085111 60.071275-60.071275c25.34653-25.34653 58.803949-39.033656 94.542555-39.033656 35.738607 0 69.196026 13.940591 94.542556 39.033656 52.213851 52.213851 52.213851 136.87126 0 189.085111z" fill="#586069" p-id="2657"></path></svg>